<svg width="23" height="20" viewBox="0 0 23 20" fill="none" xmlns="http://www.w3.org/2000/svg">
  <path d="M10.5771 1.23089L9.79252 0.44627C9.56175 0.215501 9.23867 0.215501 9.0079 0.44627L4.11559 5.29242L2.13098 3.35396C1.90021 3.12319 1.57713 3.12319 1.34636 3.35396L0.561749 4.13858C0.33098 4.36935 0.33098 4.69242 0.561749 4.92319L3.28483 7.64627C3.51559 7.87704 3.79252 7.96935 4.06944 7.96935C4.34636 7.96935 4.62329 7.87704 4.85406 7.64627L10.5771 2.0155C10.7617 1.83089 10.7617 1.46165 10.5771 1.23089Z" fill="white"/>
  <path d="M21.8387 6.49242H12.1925C11.7771 6.49242 11.4541 6.16935 11.4541 5.75396V4.27704C11.4541 3.86165 11.7771 3.53858 12.1925 3.53858H21.8387C22.2541 3.53858 22.5771 3.86165 22.5771 4.27704V5.75396C22.5771 6.16935 22.2541 6.49242 21.8387 6.49242Z" fill="white"/>
  <path d="M21.8387 13.0924H9.97713C9.56175 13.0924 9.23867 12.7693 9.23867 12.354V10.877C9.23867 10.4617 9.56175 10.1386 9.97713 10.1386H21.8387C22.2541 10.1386 22.5771 10.4617 22.5771 10.877V12.354C22.5771 12.7693 22.2541 13.0924 21.8387 13.0924Z" fill="white"/>
  <path d="M5.50021 13.0924H4.02329C3.6079 13.0924 3.28483 12.7693 3.28483 12.354V10.877C3.28483 10.4617 3.6079 10.1386 4.02329 10.1386H5.50021C5.9156 10.1386 6.23867 10.4617 6.23867 10.877V12.354C6.28483 12.7693 5.9156 13.0924 5.50021 13.0924Z" fill="white"/>
  <path d="M5.50021 19.6924H4.02329C3.6079 19.6924 3.28483 19.3693 3.28483 18.954V17.477C3.28483 17.0617 3.6079 16.7386 4.02329 16.7386H5.50021C5.9156 16.7386 6.23867 17.0617 6.23867 17.477V18.954C6.28483 19.3693 5.9156 19.6924 5.50021 19.6924Z" fill="white"/>
  <path d="M21.8387 19.6924H9.97713C9.56175 19.6924 9.23867 19.3693 9.23867 18.954V17.477C9.23867 17.0617 9.56175 16.7386 9.97713 16.7386H21.8387C22.2541 16.7386 22.5771 17.0617 22.5771 17.477V18.954C22.5771 19.3693 22.2541 19.6924 21.8387 19.6924Z" fill="white"/>
</svg>
