<svg width="23" height="20" viewBox="0 0 23 20" fill="none" xmlns="http://www.w3.org/2000/svg">
  <path d="M2.88063 14.4308H20.8806C21.2499 14.4308 21.5729 14.1077 21.5729 13.7385V2.80006C21.5729 1.69236 20.6499 0.769287 19.496 0.769287H4.26525C3.1114 0.769287 2.18833 1.69236 2.18833 2.80006V13.7385C2.18833 14.1539 2.5114 14.4308 2.88063 14.4308ZM4.26525 3.49236C4.26525 3.12313 4.58833 2.80006 4.95756 2.80006H18.8037C19.1729 2.80006 19.496 3.12313 19.496 3.49236V11.7077C19.496 12.077 19.1729 12.4001 18.8037 12.4001H4.95756C4.58833 12.4001 4.26525 12.077 4.26525 11.7077V3.49236Z" fill="white"/>
  <path d="M22.2652 16.5077H14.6499C14.2806 16.5077 13.9576 16.8308 13.9576 17.2001C13.9576 17.5693 13.6345 17.8924 13.2652 17.8924H10.496C10.1268 17.8924 9.80371 17.5693 9.80371 17.2001C9.80371 16.8308 9.48063 16.5077 9.1114 16.5077H1.49602C1.12679 16.5077 0.803711 16.8308 0.803711 17.2001C0.803711 18.3077 1.72679 19.2308 2.88063 19.2308H20.8806C22.0345 19.2308 22.9576 18.3077 22.9576 17.2001C22.9576 16.7847 22.6345 16.5077 22.2652 16.5077Z" fill="white"/>
</svg>
