<svg width="24" height="24" viewBox="0 0 24 24" fill="none" xmlns="http://www.w3.org/2000/svg">
  <path d="M23.0767 19.8462V20.8616C23.0767 22.0616 22.0613 23.0769 20.8613 23.0769H3.13824C1.93824 23.0769 0.922852 22.0616 0.922852 20.8616V19.8462C0.922852 17.1692 4.06131 15.5077 7.01516 14.2154C7.10747 14.1692 7.19977 14.1231 7.29208 14.0769C7.52285 13.9846 7.75362 13.9846 7.98439 14.1231C9.18439 14.9077 10.5229 15.3231 11.9536 15.3231C13.3844 15.3231 14.769 14.8616 15.9229 14.1231C16.1536 13.9846 16.3844 13.9846 16.6152 14.0769C16.7075 14.1231 16.7998 14.1692 16.8921 14.2154C19.9382 15.5077 23.0767 17.1231 23.0767 19.8462ZM11.9998 0.923096C15.0459 0.923096 17.4921 3.64617 17.4921 7.0154C17.4921 10.3846 15.0459 13.1077 11.9998 13.1077C8.95362 13.1077 6.50747 10.3846 6.50747 7.0154C6.50747 3.64617 8.95362 0.923096 11.9998 0.923096Z" fill="white"/>
</svg>
