<svg width="24" height="24" viewBox="0 0 24 24" fill="none" xmlns="http://www.w3.org/2000/svg">
  <path d="M9.23054 17.3077C9.23054 16.9385 8.90747 16.6154 8.53824 16.6154H1.61516C1.24593 16.6154 0.922852 16.9385 0.922852 17.3077V22.3846C0.922852 22.7539 1.24593 23.0769 1.61516 23.0769H8.53824C8.90747 23.0769 9.23054 22.7539 9.23054 22.3846V17.3077Z" fill="white"/>
  <path d="M3.73824 10.1539H1.4767C1.01516 10.1539 0.78439 10.5692 1.06131 10.8L4.75362 14.6308C4.93824 14.7692 5.21516 14.7692 5.39977 14.6308L9.09208 10.8C9.36901 10.5231 9.13824 10.1539 8.6767 10.1539H6.50747C6.50747 7.84617 8.769 5.53848 11.0767 5.53848V2.76925C6.92285 2.76925 3.73824 6.00002 3.73824 10.1539Z" fill="white"/>
  <path d="M19.2921 9.36925C19.1075 9.23079 18.8305 9.23079 18.6459 9.36925L14.9536 13.2C14.6767 13.4769 14.9075 13.8462 15.369 13.8462H17.5844C17.5844 16.6154 15.6921 18.4616 12.9229 18.4616V21.2308C17.0767 21.2308 20.3536 18 20.3536 13.8462H22.6152C23.0767 13.8462 23.3075 13.4308 23.0305 13.2L19.2921 9.36925Z" fill="white"/>
  <path d="M23.0767 1.6154C23.0767 1.24617 22.7536 0.923096 22.3844 0.923096H15.4613C15.0921 0.923096 14.769 1.24617 14.769 1.6154V6.69233C14.769 7.06156 15.0921 7.38463 15.4613 7.38463H22.3844C22.7536 7.38463 23.0767 7.06156 23.0767 6.69233V1.6154Z" fill="white"/>
</svg>
