<svg width="20" height="21" viewBox="0 0 20 21" fill="none" xmlns="http://www.w3.org/2000/svg">
  <path fill-rule="evenodd" clip-rule="evenodd" d="M2.44217 5.38433C3.79094 5.38433 4.88433 4.29094 4.88433 2.94217C4.88433 1.59339 3.79094 0.5 2.44217 0.5C1.09339 0.5 0 1.59339 0 2.94217C0 4.29094 1.09339 5.38433 2.44217 5.38433ZM2.44217 12.9422C3.79094 12.9422 4.88433 11.8488 4.88433 10.5C4.88433 9.15123 3.79094 8.05783 2.44217 8.05783C1.09339 8.05783 0 9.15123 0 10.5C0 11.8488 1.09339 12.9422 2.44217 12.9422ZM4.88433 18.0578C4.88433 19.4066 3.79094 20.5 2.44217 20.5C1.09339 20.5 0 19.4066 0 18.0578C0 16.7091 1.09339 15.6157 2.44217 15.6157C3.79094 15.6157 4.88433 16.7091 4.88433 18.0578ZM9.99978 5.38433C11.3486 5.38433 12.4419 4.29094 12.4419 2.94217C12.4419 1.59339 11.3486 0.5 9.99978 0.5C8.65101 0.5 7.55762 1.59339 7.55762 2.94217C7.55762 4.29094 8.65101 5.38433 9.99978 5.38433ZM12.4419 10.5C12.4419 11.8488 11.3486 12.9422 9.99978 12.9422C8.65101 12.9422 7.55762 11.8488 7.55762 10.5C7.55762 9.15126 8.65101 8.05786 9.99978 8.05786C11.3486 8.05786 12.4419 9.15126 12.4419 10.5ZM9.99978 20.5001C11.3486 20.5001 12.4419 19.4067 12.4419 18.0579C12.4419 16.7091 11.3486 15.6157 9.99978 15.6157C8.65101 15.6157 7.55762 16.7091 7.55762 18.0579C7.55762 19.4067 8.65101 20.5001 9.99978 20.5001ZM20.0015 2.94217C20.0015 4.29094 18.9081 5.38433 17.5594 5.38433C16.2106 5.38433 15.1172 4.29094 15.1172 2.94217C15.1172 1.59339 16.2106 0.5 17.5594 0.5C18.9081 0.5 20.0015 1.59339 20.0015 2.94217ZM17.5594 12.9419C18.9081 12.9419 20.0015 11.8486 20.0015 10.4998C20.0015 9.15101 18.9081 8.05762 17.5594 8.05762C16.2106 8.05762 15.1172 9.15101 15.1172 10.4998C15.1172 11.8486 16.2106 12.9419 17.5594 12.9419ZM20.0015 18.0574C20.0015 19.4062 18.9081 20.4996 17.5594 20.4996C16.2106 20.4996 15.1172 19.4062 15.1172 18.0574C15.1172 16.7086 16.2106 15.6152 17.5594 15.6152C18.9081 15.6152 20.0015 16.7086 20.0015 18.0574Z" fill="#747474"/>
</svg>
