<svg width="21" height="22" viewBox="0 0 21 22" fill="none" xmlns="http://www.w3.org/2000/svg">
  <path d="M18.5553 0.846191H1.9399C0.924519 0.846191 0.09375 1.67696 0.09375 2.69235V19.3077C0.09375 20.3231 0.924519 21.1539 1.9399 21.1539H18.5553C19.5707 21.1539 20.4014 20.3231 20.4014 19.3077V2.69235C20.4014 1.67696 19.5707 0.846191 18.5553 0.846191ZM3.78606 5.46158C3.78606 5.18465 3.97067 5.00004 4.2476 5.00004H8.86298C9.1399 5.00004 9.32452 5.18465 9.32452 5.46158V10.077C9.32452 10.3539 9.1399 10.5385 8.86298 10.5385H4.2476C3.97067 10.5385 3.78606 10.3539 3.78606 10.077V5.46158ZM14.863 17.4616C14.863 17.7385 14.6784 17.9231 14.4014 17.9231H4.2476C3.97067 17.9231 3.78606 17.7385 3.78606 17.4616V16.5385C3.78606 16.2616 3.97067 16.077 4.2476 16.077H14.4014C14.6784 16.077 14.863 16.2616 14.863 16.5385V17.4616ZM16.7091 13.7693C16.7091 14.0462 16.5245 14.2308 16.2476 14.2308H4.2476C3.97067 14.2308 3.78606 14.0462 3.78606 13.7693V12.8462C3.78606 12.5693 3.97067 12.3847 4.2476 12.3847H16.2476C16.5245 12.3847 16.7091 12.5693 16.7091 12.8462V13.7693ZM16.7091 10.077C16.7091 10.3539 16.5245 10.5385 16.2476 10.5385H11.6322C11.3553 10.5385 11.1707 10.3539 11.1707 10.077V9.15388C11.1707 8.87696 11.3553 8.69234 11.6322 8.69234H16.2476C16.5245 8.69234 16.7091 8.87696 16.7091 9.15388V10.077ZM16.7091 6.38465C16.7091 6.66158 16.5245 6.84619 16.2476 6.84619H11.6322C11.3553 6.84619 11.1707 6.66158 11.1707 6.38465V5.46158C11.1707 5.18465 11.3553 5.00004 11.6322 5.00004H16.2476C16.5245 5.00004 16.7091 5.18465 16.7091 5.46158V6.38465Z" fill="white"/>
</svg>
