<svg width="32" height="36" viewBox="0 0 32 36" fill="none" xmlns="http://www.w3.org/2000/svg">
<path fill-rule="evenodd" clip-rule="evenodd" d="M16.0427 23.04C13.2635 23.04 11.0603 20.8032 11.0603 18.0576C11.0603 15.312 13.2971 13.0752 16.0427 13.0752C18.7883 13.0752 21.0251 15.312 21.0251 18.0576C21.0251 20.8032 18.7883 23.04 16.0427 23.04ZM12.8651 18.0576C12.8651 16.2864 14.2715 14.88 16.0427 14.88C17.8139 14.88 19.2203 16.2864 19.2203 18.0576C19.2203 19.8288 17.8139 21.2352 16.0427 21.2352C14.2715 21.2352 12.8651 19.8288 12.8651 18.0576Z" fill="white"/>
<path fill-rule="evenodd" clip-rule="evenodd" d="M17.9147 1.23355C16.7291 0.54715 15.2699 0.54715 14.0843 1.23355L2.43473 7.95835C1.24913 8.64475 0.519531 9.90715 0.519531 11.2752V24.7248C0.519531 26.0928 1.24913 27.3551 2.43473 28.0415L14.0843 34.7663C15.2699 35.4528 16.7291 35.4528 17.9147 34.7663L29.5643 28.0415C30.7499 27.3551 31.4795 26.0928 31.4795 24.7248V11.2752C31.4795 9.90715 30.7499 8.64475 29.5643 7.95835L17.9147 1.23355ZM23.8763 19.4975L25.5371 20.9039C26.0795 21.3743 26.2571 22.1663 25.8251 22.7087L25.1387 23.8991C24.8843 24.3311 24.3803 24.6192 23.8379 24.6192C23.7179 24.6192 23.5979 24.5855 23.4779 24.5567C23.4155 24.5423 23.3579 24.5231 23.2955 24.5135L21.3467 23.7551C20.5163 24.5135 19.5755 25.0559 18.5291 25.4159L18.1691 27.5807C18.0587 28.3007 17.4107 28.8431 16.6907 28.8431H15.2459C14.4875 28.8431 13.9115 28.3391 13.7675 27.6143L13.4075 25.4495C12.4667 25.1231 11.5643 24.6191 10.7339 23.8991L8.64113 24.6575C8.49713 24.7295 8.31473 24.7679 8.13713 24.7679C7.59473 24.7679 7.12433 24.5135 6.83633 24.0479L6.11633 22.7855C5.75633 22.1375 5.93393 21.3407 6.47633 20.8703L8.13713 19.4639C8.02673 18.9599 7.99313 18.4511 7.99313 17.9135C7.99313 17.4095 8.03153 16.8671 8.13713 16.3631L6.47633 14.9567C5.90033 14.4864 5.75633 13.6943 6.11633 13.0415L6.83633 11.7792C7.09073 11.3471 7.59473 11.0592 8.13713 11.0592C8.25233 11.0592 8.35313 11.0879 8.45873 11.1215C8.51633 11.1407 8.57873 11.1552 8.64113 11.1695L10.7723 11.9279C11.5691 11.2415 12.4715 10.6991 13.4795 10.3775L13.8395 8.28475C13.9499 7.56475 14.5979 7.16635 15.3179 7.16635H16.7627C17.4827 7.16635 18.0971 7.56475 18.2411 8.28475L18.6011 10.416C19.5419 10.7424 20.4443 11.2464 21.2747 11.9664L23.3675 11.2079C23.5115 11.136 23.6939 11.0975 23.8715 11.0975C24.4139 11.0975 24.8843 11.3519 25.1723 11.8175L25.8923 13.08C26.2523 13.728 26.0747 14.5248 25.5323 14.9952L23.8715 16.4015C23.9819 16.9055 24.0155 17.448 24.0155 17.952C24.0155 18.4559 23.9771 18.9984 23.8715 19.5023L23.8763 19.4975Z" fill="white"/>
</svg>
